<svg width="90" height="23" viewBox="0 0 90 23" fill="none" xmlns="http://www.w3.org/2000/svg">
<path d="M10.6523 13.6055C10.6523 12.8555 10.3867 12.2773 9.85547 11.8711C9.33203 11.4648 8.38281 11.0547 7.00781 10.6406C5.63281 10.2266 4.53906 9.76562 3.72656 9.25781C2.17188 8.28125 1.39453 7.00781 1.39453 5.4375C1.39453 4.0625 1.95312 2.92969 3.07031 2.03906C4.19531 1.14844 5.65234 0.703125 7.44141 0.703125C8.62891 0.703125 9.6875 0.921875 10.6172 1.35938C11.5469 1.79687 12.2773 2.42188 12.8086 3.23438C13.3398 4.03906 13.6055 4.93359 13.6055 5.91797H10.6523C10.6523 5.02734 10.3711 4.33203 9.80859 3.83203C9.25391 3.32422 8.45703 3.07031 7.41797 3.07031C6.44922 3.07031 5.69531 3.27734 5.15625 3.69141C4.625 4.10547 4.35938 4.68359 4.35938 5.42578C4.35938 6.05078 4.64844 6.57422 5.22656 6.99609C5.80469 7.41016 6.75781 7.81641 8.08594 8.21484C9.41406 8.60547 10.4805 9.05469 11.2852 9.5625C12.0898 10.0625 12.6797 10.6406 13.0547 11.2969C13.4297 11.9453 13.6172 12.707 13.6172 13.582C13.6172 15.0039 13.0703 16.1367 11.9766 16.9805C10.8906 17.8164 9.41406 18.2344 7.54688 18.2344C6.3125 18.2344 5.17578 18.0078 4.13672 17.5547C3.10547 17.0938 2.30078 16.4609 1.72266 15.6562C1.15234 14.8516 0.867188 13.9141 0.867188 12.8438H3.83203C3.83203 13.8125 4.15234 14.5625 4.79297 15.0938C5.43359 15.625 6.35156 15.8906 7.54688 15.8906C8.57812 15.8906 9.35156 15.6836 9.86719 15.2695C10.3906 14.8477 10.6523 14.293 10.6523 13.6055ZM89.5195 7.92188C89.1445 7.85938 88.7578 7.82812 88.3594 7.82812C87.0547 7.82812 86.1758 8.32812 85.7227 9.32812V18H82.875V5.32031H85.5938L85.6641 6.73828C86.3516 5.63672 87.3047 5.08594 88.5234 5.08594C88.9297 5.08594 89.2656 5.14062 89.5312 5.25L89.5195 7.92188Z" fill="#00B4D8"/>
<path d="M18.75 6.70312C19.6797 5.625 20.8555 5.08594 22.2773 5.08594C24.9805 5.08594 26.3516 6.62891 26.3906 9.71484V18H23.543V9.82031C23.543 8.94531 23.3516 8.32812 22.9688 7.96875C22.5938 7.60156 22.0391 7.41797 21.3047 7.41797C20.1641 7.41797 19.3125 7.92578 18.75 8.94141V18H15.9023V0H18.75V6.70312ZM28.7461 11.543C28.7461 10.3008 28.9922 9.18359 29.4844 8.19141C29.9766 7.19141 30.668 6.42578 31.5586 5.89453C32.4492 5.35547 33.4727 5.08594 34.6289 5.08594C36.3398 5.08594 37.7266 5.63672 38.7891 6.73828C39.8594 7.83984 40.4375 9.30078 40.5234 11.1211L40.5352 11.7891C40.5352 13.0391 40.293 14.1562 39.8086 15.1406C39.332 16.125 38.6445 16.8867 37.7461 17.4258C36.8555 17.9648 35.8242 18.2344 34.6523 18.2344C32.8633 18.2344 31.4297 17.6406 30.3516 16.4531C29.2812 15.2578 28.7461 13.668 28.7461 11.6836V11.543ZM31.5938 11.7891C31.5938 13.0938 31.8633 14.1172 32.4023 14.8594C32.9414 15.5938 33.6914 15.9609 34.6523 15.9609C35.6133 15.9609 36.3594 15.5859 36.8906 14.8359C37.4297 14.0859 37.6992 12.9883 37.6992 11.543C37.6992 10.2617 37.4219 9.24609 36.8672 8.49609C36.3203 7.74609 35.5742 7.37109 34.6289 7.37109C33.6992 7.37109 32.9609 7.74219 32.4141 8.48438C31.8672 9.21875 31.5938 10.3203 31.5938 11.7891ZM54.0469 11.7891C54.0469 13.75 53.6016 15.3164 52.7109 16.4883C51.8203 17.6523 50.625 18.2344 49.125 18.2344C47.7344 18.2344 46.6211 17.7773 45.7852 16.8633V22.875H42.9375V5.32031H45.5625L45.6797 6.60938C46.5156 5.59375 47.6523 5.08594 49.0898 5.08594C50.6367 5.08594 51.8477 5.66406 52.7227 6.82031C53.6055 7.96875 54.0469 9.56641 54.0469 11.6133V11.7891ZM51.2109 11.543C51.2109 10.2773 50.957 9.27344 50.4492 8.53125C49.9492 7.78906 49.2305 7.41797 48.293 7.41797C47.1289 7.41797 46.293 7.89844 45.7852 8.85938V14.4844C46.3008 15.4688 47.1445 15.9609 48.3164 15.9609C49.2227 15.9609 49.9297 15.5977 50.4375 14.8711C50.9531 14.1367 51.2109 13.0273 51.2109 11.543ZM67.5703 11.7891C67.5703 13.75 67.125 15.3164 66.2344 16.4883C65.3438 17.6523 64.1484 18.2344 62.6484 18.2344C61.2578 18.2344 60.1445 17.7773 59.3086 16.8633V22.875H56.4609V5.32031H59.0859L59.2031 6.60938C60.0391 5.59375 61.1758 5.08594 62.6133 5.08594C64.1602 5.08594 65.3711 5.66406 66.2461 6.82031C67.1289 7.96875 67.5703 9.56641 67.5703 11.6133V11.7891ZM64.7344 11.543C64.7344 10.2773 64.4805 9.27344 63.9727 8.53125C63.4727 7.78906 62.7539 7.41797 61.8164 7.41797C60.6523 7.41797 59.8164 7.89844 59.3086 8.85938V14.4844C59.8242 15.4688 60.668 15.9609 61.8398 15.9609C62.7461 15.9609 63.4531 15.5977 63.9609 14.8711C64.4766 14.1367 64.7344 13.0273 64.7344 11.543ZM75.5742 18.2344C73.7695 18.2344 72.3047 17.668 71.1797 16.5352C70.0625 15.3945 69.5039 13.8789 69.5039 11.9883V11.6367C69.5039 10.3711 69.7461 9.24219 70.2305 8.25C70.7227 7.25 71.4102 6.47266 72.293 5.91797C73.1758 5.36328 74.1602 5.08594 75.2461 5.08594C76.9727 5.08594 78.3047 5.63672 79.2422 6.73828C80.1875 7.83984 80.6602 9.39844 80.6602 11.4141V12.5625H72.375C72.4609 13.6094 72.8086 14.4375 73.418 15.0469C74.0352 15.6562 74.8086 15.9609 75.7383 15.9609C77.043 15.9609 78.1055 15.4336 78.9258 14.3789L80.4609 15.8438C79.9531 16.6016 79.2734 17.1914 78.4219 17.6133C77.5781 18.0273 76.6289 18.2344 75.5742 18.2344ZM75.2344 7.37109C74.4531 7.37109 73.8203 7.64453 73.3359 8.19141C72.8594 8.73828 72.5547 9.5 72.4219 10.4766H77.8477V10.2656C77.7852 9.3125 77.5312 8.59375 77.0859 8.10938C76.6406 7.61719 76.0234 7.37109 75.2344 7.37109Z" fill="black"/>
</svg>
