<svg width="596" height="497" viewBox="0 0 596 497" fill="none" xmlns="http://www.w3.org/2000/svg">
<g clip-path="url(#clip0_42:217)">
<path d="M245.579 116.952H242.873V42.8742C242.873 37.2439 241.763 31.6687 239.607 26.4669C237.451 21.2652 234.29 16.5388 230.306 12.5575C226.322 8.57628 221.592 5.41819 216.386 3.26357C211.18 1.10895 205.601 -1.76146e-05 199.967 2.09849e-10H42.9062C37.2717 -1.76146e-05 31.6923 1.10894 26.4867 3.26357C21.2811 5.41819 16.5511 8.57628 12.5669 12.5575C8.58271 16.5388 5.42226 21.2652 3.26602 26.4669C1.10978 31.6687 -8.81395e-06 37.2439 0 42.8742V449.27C-5.28835e-06 454.9 1.10979 460.476 3.26603 465.677C5.42227 470.879 8.58272 475.605 12.5669 479.587C16.5511 483.568 21.2811 486.726 26.4867 488.881C31.6923 491.035 37.2717 492.144 42.9062 492.144H199.967C205.601 492.144 211.18 491.035 216.386 488.881C221.592 486.726 226.322 483.568 230.306 479.587C234.29 475.605 237.451 470.879 239.607 465.677C241.763 460.476 242.873 454.9 242.873 449.27V169.682H245.579V116.952Z" fill="#E6E6E6"/>
<path d="M201.698 11.1544H181.196C182.139 13.4642 182.499 15.9702 182.244 18.4517C181.99 20.9331 181.128 23.3139 179.736 25.3843C178.343 27.4547 176.463 29.1512 174.259 30.3242C172.056 31.4973 169.598 32.1109 167.102 32.1111H77.124C74.6276 32.1109 72.1696 31.4973 69.9665 30.3242C67.7634 29.1512 65.8828 27.4547 64.4903 25.3843C63.0979 23.314 62.2363 20.9331 61.9816 18.4517C61.7269 15.9702 62.0868 13.4642 63.0296 11.1544H43.8811C39.6733 11.1544 35.5067 11.9826 31.6192 13.5916C27.7317 15.2007 24.1994 17.5591 21.2241 20.5322C18.2487 23.5054 15.8885 27.035 14.2783 30.9196C12.668 34.8042 11.8392 38.9677 11.8392 43.1723V448.972C11.8392 453.177 12.668 457.34 14.2783 461.225C15.8885 465.109 18.2487 468.639 21.2241 471.612C24.1994 474.585 27.7317 476.944 31.6192 478.553C35.5067 480.162 39.6733 480.99 43.8811 480.99H201.698C205.906 480.99 210.072 480.162 213.96 478.553C217.847 476.944 221.38 474.585 224.355 471.612C227.33 468.639 229.69 465.109 231.301 461.225C232.911 457.34 233.74 453.177 233.74 448.972V43.1723C233.74 38.9677 232.911 34.8042 231.301 30.9196C229.69 27.035 227.33 23.5054 224.355 20.5322C221.38 17.5591 217.847 15.2007 213.96 13.5916C210.072 11.9826 205.906 11.1544 201.698 11.1544Z" fill="white"/>
<path d="M76.2936 93.649H66.8709C66.5395 93.649 66.2218 93.7806 65.9875 94.0147C65.7532 94.2488 65.6216 94.5663 65.6216 94.8974V99.0302C65.6216 99.3613 65.7532 99.6788 65.9875 99.9129C66.2218 100.147 66.5395 100.279 66.8709 100.279H68.4323V106.471H74.7321V100.279H76.2936C76.6249 100.279 76.9427 100.147 77.177 99.9129C77.4113 99.6788 77.5429 99.3613 77.5429 99.0302V94.8974C77.5429 94.5663 77.4113 94.2488 77.177 94.0147C76.9427 93.7806 76.6249 93.649 76.2936 93.649Z" fill="#E6E6E6"/>
<path d="M85.7315 131.473C79.9607 123.035 77.0106 112.988 77.3038 102.772C77.309 102.537 77.2324 102.306 77.0871 102.121C76.9417 101.935 76.7365 101.805 76.5062 101.754V99.9678H66.5546V101.729H66.4174C66.1466 101.729 65.887 101.837 65.6958 102.029C65.5045 102.22 65.3973 102.48 65.3976 102.75C65.3977 102.775 65.3986 102.8 65.4004 102.825C66.1845 113.745 63.537 123.539 57.4582 132.205C57.1084 132.703 56.9297 133.301 56.9489 133.909L58.0371 167.544C58.0632 168.295 58.3783 169.006 58.9166 169.529C59.4549 170.053 60.1748 170.349 60.926 170.355H83.4352C84.195 170.349 84.9224 170.046 85.4623 169.512C86.0023 168.978 86.3122 168.254 86.3259 167.495L86.7453 134.838C86.7577 133.639 86.404 132.465 85.7315 131.473Z" fill="#E6E6E6"/>
<path d="M82.1683 142.645H62.5757C62.2857 142.645 61.9991 142.708 61.7356 142.829C61.4721 142.95 61.2379 143.127 61.049 143.347C60.8602 143.567 60.7212 143.825 60.6415 144.103C60.5619 144.382 60.5435 144.675 60.5876 144.961L63.5483 164.191H80.5491L84.1453 145.026C84.1998 144.736 84.1896 144.437 84.1154 144.151C84.0412 143.865 83.9049 143.599 83.7162 143.372C83.5274 143.144 83.2908 142.962 83.0233 142.836C82.7558 142.71 82.4638 142.645 82.1683 142.645Z" fill="white"/>
<path d="M181.187 194.407H171.764C171.433 194.407 171.115 194.539 170.881 194.773C170.647 195.007 170.515 195.324 170.515 195.655V199.788C170.515 200.119 170.647 200.437 170.881 200.671C171.115 200.905 171.433 201.037 171.764 201.037H173.326V207.229H179.626V201.037H181.187C181.519 201.037 181.836 200.905 182.071 200.671C182.305 200.437 182.436 200.119 182.436 199.788V195.655C182.436 195.324 182.305 195.007 182.071 194.773C181.836 194.539 181.518 194.407 181.187 194.407Z" fill="#E6E6E6"/>
<path d="M190.625 232.231C184.854 223.793 181.904 213.746 182.197 203.53C182.203 203.295 182.126 203.064 181.981 202.879C181.835 202.693 181.63 202.563 181.4 202.512V200.726H171.448V202.487H171.311C171.177 202.487 171.044 202.514 170.92 202.565C170.797 202.616 170.684 202.692 170.589 202.787C170.495 202.881 170.42 202.994 170.368 203.118C170.317 203.242 170.291 203.375 170.291 203.508C170.291 203.533 170.292 203.558 170.294 203.583C171.078 214.504 168.431 224.297 162.352 232.963C162.002 233.461 161.823 234.059 161.842 234.667L162.931 268.303C162.957 269.053 163.272 269.764 163.81 270.288C164.348 270.811 165.068 271.107 165.82 271.113H188.329C189.089 271.107 189.816 270.804 190.356 270.27C190.896 269.736 191.206 269.012 191.219 268.253L191.639 235.596C191.651 234.397 191.298 233.223 190.625 232.231Z" fill="#E6E6E6"/>
<path d="M187.062 243.403H167.469C167.179 243.403 166.893 243.466 166.629 243.587C166.366 243.708 166.131 243.885 165.943 244.105C165.754 244.325 165.615 244.583 165.535 244.861C165.455 245.14 165.437 245.433 165.481 245.719L168.442 264.949H185.443L189.039 245.784C189.093 245.493 189.083 245.195 189.009 244.909C188.935 244.623 188.798 244.357 188.61 244.13C188.421 243.902 188.184 243.72 187.917 243.594C187.649 243.468 187.357 243.403 187.062 243.403H187.062Z" fill="white"/>
<path d="M63.0465 336.849H58.5768C58.4197 336.849 58.269 336.912 58.1578 337.023C58.0467 337.134 57.9843 337.284 57.9843 337.442V339.402C57.9843 339.559 58.0467 339.71 58.1578 339.821C58.269 339.932 58.4197 339.994 58.5768 339.994H59.3175V342.931H62.3058V339.994H63.0465C63.2037 339.994 63.3544 339.932 63.4655 339.821C63.5766 339.71 63.6391 339.559 63.6391 339.402V337.442C63.6391 337.284 63.5766 337.134 63.4655 337.023C63.3544 336.912 63.2037 336.849 63.0465 336.849Z" fill="#E6E6E6"/>
<path d="M67.5233 354.791C64.786 350.788 63.3866 346.023 63.5256 341.177C63.5281 341.065 63.4918 340.956 63.4229 340.868C63.3539 340.78 63.2566 340.718 63.1474 340.694V339.847H58.4268V340.682H58.3618C58.2982 340.682 58.2352 340.695 58.1764 340.719C58.1177 340.743 58.0644 340.779 58.0194 340.824C57.9745 340.869 57.9389 340.923 57.9146 340.981C57.8904 341.04 57.8779 341.103 57.878 341.167C57.878 341.178 57.8785 341.19 57.8794 341.202C58.3151 346.147 56.98 351.085 54.112 355.138C53.9461 355.375 53.8613 355.658 53.8704 355.947L54.3865 371.901C54.3989 372.257 54.5484 372.595 54.8038 372.843C55.0591 373.091 55.4006 373.232 55.7569 373.234H66.4341C66.7945 373.231 67.1395 373.088 67.3956 372.835C67.6517 372.581 67.7987 372.238 67.8053 371.878L68.0042 356.387C68.0101 355.819 67.8423 355.262 67.5233 354.791Z" fill="#E6E6E6"/>
<path d="M65.9867 360.656H55.799V365.746H65.9867V360.656Z" fill="white"/>
<path d="M83.8528 336.849H79.3831C79.226 336.849 79.0752 336.912 78.9641 337.023C78.853 337.134 78.7905 337.284 78.7905 337.442V339.402C78.7905 339.559 78.853 339.71 78.9641 339.821C79.0752 339.932 79.226 339.994 79.3831 339.994H80.1238V342.931H83.1121V339.994H83.8528C84.0099 339.994 84.1607 339.932 84.2718 339.821C84.3829 339.71 84.4453 339.559 84.4453 339.402V337.442C84.4453 337.284 84.3829 337.134 84.2718 337.023C84.1607 336.912 84.0099 336.849 83.8528 336.849Z" fill="#E6E6E6"/>
<path d="M88.3296 354.791C85.5923 350.788 84.1929 346.023 84.3319 341.177C84.3344 341.065 84.2981 340.956 84.2291 340.868C84.1602 340.78 84.0628 340.718 83.9536 340.694V339.847H79.2331V340.682H79.168C79.1044 340.682 79.0415 340.695 78.9827 340.719C78.924 340.743 78.8707 340.779 78.8257 340.824C78.7808 340.869 78.7452 340.923 78.7209 340.981C78.6967 341.04 78.6842 341.103 78.6843 341.167C78.6843 341.178 78.6848 341.19 78.6857 341.202C79.1213 346.147 77.7863 351.085 74.9183 355.138C74.7524 355.375 74.6676 355.658 74.6767 355.947L75.1928 371.901C75.2052 372.257 75.3547 372.595 75.61 372.843C75.8654 373.091 76.2069 373.232 76.5632 373.234H87.2403C87.6007 373.231 87.9458 373.088 88.2019 372.835C88.458 372.581 88.605 372.238 88.6115 371.878L88.8104 356.387C88.8164 355.819 88.6486 355.262 88.3296 354.791Z" fill="#E6E6E6"/>
<path d="M86.793 360.656H76.6052V365.746H86.793V360.656Z" fill="white"/>
<path d="M104.659 336.849H100.189C100.032 336.849 99.8815 336.912 99.7704 337.023C99.6592 337.134 99.5968 337.284 99.5968 337.442V339.402C99.5968 339.559 99.6592 339.71 99.7704 339.821C99.8815 339.932 100.032 339.994 100.189 339.994H100.93V342.931H103.918V339.994H104.659C104.816 339.994 104.967 339.932 105.078 339.821C105.189 339.71 105.252 339.559 105.252 339.402V337.442C105.252 337.284 105.189 337.134 105.078 337.023C104.967 336.912 104.816 336.849 104.659 336.849Z" fill="#E6E6E6"/>
<path d="M109.136 354.791C106.399 350.788 104.999 346.023 105.138 341.177C105.141 341.065 105.104 340.956 105.035 340.868C104.966 340.78 104.869 340.718 104.76 340.694V339.847H100.039V340.682H99.9743C99.9107 340.682 99.8477 340.695 99.789 340.719C99.7303 340.743 99.6769 340.779 99.632 340.824C99.5871 340.869 99.5515 340.923 99.5272 340.981C99.5029 341.04 99.4905 341.103 99.4906 341.167C99.4906 341.178 99.491 341.19 99.4919 341.202C99.9276 346.147 98.5926 351.085 95.7246 355.138C95.5586 355.375 95.4739 355.658 95.483 355.947L95.9991 371.901C96.0115 372.257 96.161 372.595 96.4163 372.843C96.6716 373.091 97.0131 373.232 97.3695 373.234H108.047C108.407 373.231 108.752 373.088 109.008 372.835C109.264 372.581 109.411 372.238 109.418 371.878L109.617 356.387C109.623 355.819 109.455 355.262 109.136 354.791Z" fill="#E6E6E6"/>
<path d="M107.599 360.656H97.4115V365.746H107.599V360.656Z" fill="white"/>
<path d="M164.818 297.87H155.395C155.231 297.87 155.068 297.902 154.917 297.965C154.765 298.028 154.628 298.12 154.512 298.236C154.396 298.352 154.304 298.489 154.241 298.641C154.178 298.792 154.146 298.954 154.146 299.118V303.251C154.146 303.582 154.277 303.9 154.512 304.134C154.746 304.368 155.064 304.5 155.395 304.5H156.956V310.692H163.256V304.5H164.818C165.149 304.5 165.467 304.368 165.701 304.134C165.935 303.9 166.067 303.582 166.067 303.251V299.118C166.067 298.954 166.035 298.792 165.972 298.641C165.909 298.489 165.817 298.352 165.701 298.236C165.585 298.12 165.447 298.028 165.296 297.965C165.144 297.902 164.982 297.87 164.818 297.87Z" fill="#E6E6E6"/>
<path d="M174.256 335.694C168.485 327.256 165.535 317.209 165.828 306.993C165.833 306.758 165.756 306.527 165.611 306.342C165.466 306.156 165.261 306.026 165.03 305.975V304.189H155.079V305.95H154.941C154.807 305.95 154.675 305.977 154.551 306.028C154.427 306.079 154.315 306.155 154.22 306.25C154.125 306.344 154.05 306.457 153.999 306.581C153.948 306.705 153.922 306.837 153.922 306.971C153.922 306.996 153.923 307.021 153.924 307.046C154.709 317.967 152.061 327.76 145.982 336.426C145.632 336.924 145.454 337.522 145.473 338.13L146.561 371.766C146.587 372.516 146.902 373.227 147.441 373.751C147.979 374.274 148.699 374.57 149.45 374.576H171.959C172.719 374.57 173.446 374.267 173.986 373.733C174.526 373.199 174.836 372.475 174.85 371.716L175.269 339.059C175.282 337.86 174.928 336.686 174.256 335.694Z" fill="#E6E6E6"/>
<path d="M170.692 346.866H151.1C150.81 346.866 150.523 346.929 150.26 347.05C149.996 347.171 149.762 347.348 149.573 347.568C149.384 347.787 149.245 348.046 149.166 348.324C149.086 348.603 149.068 348.896 149.112 349.182L152.072 368.412H169.073L172.669 349.247C172.724 348.957 172.714 348.658 172.639 348.372C172.565 348.086 172.429 347.82 172.24 347.593C172.051 347.365 171.815 347.183 171.547 347.057C171.28 346.931 170.988 346.866 170.692 346.866Z" fill="white"/>
<path d="M169.962 174.685H113.793C117.72 153.469 116.817 127.851 113.793 100.3H169.962C167.019 127.851 166.139 153.469 169.962 174.685Z" fill="#E6E6E6"/>
<path d="M142.216 148.988C149.691 148.988 155.75 142.933 155.75 135.464C155.75 127.994 149.691 121.939 142.216 121.939C134.741 121.939 128.681 127.994 128.681 135.464C128.681 142.933 134.741 148.988 142.216 148.988Z" fill="white"/>
<path d="M118.53 273.414H62.3613C66.2883 252.198 65.3849 226.58 62.3613 199.029H118.53C115.587 226.58 114.708 252.199 118.53 273.414Z" fill="#E6E6E6"/>
<path d="M90.7842 247.717C98.2591 247.717 104.319 241.662 104.319 234.193C104.319 226.723 98.2591 220.668 90.7842 220.668C83.3092 220.668 77.2495 226.723 77.2495 234.193C77.2495 241.662 83.3092 247.717 90.7842 247.717Z" fill="white"/>
<path d="M201.768 179.418H145.599C149.526 158.203 148.623 132.584 145.599 105.033H201.768C198.825 132.584 197.946 158.203 201.768 179.418Z" fill="#E6E6E6"/>
<path d="M174.022 153.722C181.497 153.722 187.557 147.666 187.557 140.197C187.557 132.728 181.497 126.672 174.022 126.672C166.547 126.672 160.488 132.728 160.488 140.197C160.488 147.666 166.547 153.722 174.022 153.722Z" fill="white"/>
<path d="M201.768 176.037H145.599C149.526 154.822 148.623 129.203 145.599 101.652H201.768C198.825 129.203 197.946 154.822 201.768 176.037Z" fill="#E6E6E6"/>
<path d="M174.022 150.34C181.497 150.34 187.557 144.285 187.557 136.816C187.557 129.347 181.497 123.291 174.022 123.291C166.547 123.291 160.488 129.347 160.488 136.816C160.488 144.285 166.547 150.34 174.022 150.34Z" fill="white"/>
<path d="M201.768 179.418H145.599C149.526 158.203 148.623 132.584 145.599 105.033H201.768C198.825 132.584 197.946 158.203 201.768 179.418Z" fill="#E6E6E6"/>
<path d="M174.022 153.722C181.497 153.722 187.557 147.666 187.557 140.197C187.557 132.728 181.497 126.672 174.022 126.672C166.547 126.672 160.488 132.728 160.488 140.197C160.488 147.666 166.547 153.722 174.022 153.722Z" fill="white"/>
<path d="M214.626 170.627H30.5549V190.914H214.626V170.627Z" fill="#E6E6E6"/>
<path d="M214.626 271.385H30.5549V291.672H214.626V271.385Z" fill="#E6E6E6"/>
<path d="M214.626 372.143H30.5549V392.43H214.626V372.143Z" fill="#E6E6E6"/>
<path d="M534.826 454.446L488.968 422.036C504.434 406.981 518.501 385.544 531.954 361.306L577.812 393.716C559.488 414.512 543.965 434.92 534.826 454.446Z" fill="#EEA202"/>
<path d="M534.838 419.94C542.313 419.94 548.373 413.884 548.373 406.415C548.373 398.946 542.313 392.89 534.838 392.89C527.363 392.89 521.304 398.946 521.304 406.415C521.304 413.884 527.363 419.94 534.838 419.94Z" fill="white"/>
<path d="M313.613 306.549H308.579C308.402 306.549 308.232 306.62 308.107 306.745C307.982 306.87 307.912 307.039 307.912 307.216V309.424C307.912 309.512 307.929 309.598 307.963 309.679C307.996 309.76 308.045 309.834 308.107 309.896C308.169 309.958 308.243 310.007 308.324 310.04C308.405 310.074 308.492 310.091 308.579 310.091H309.413V313.399H312.779V310.091H313.613C313.79 310.091 313.96 310.021 314.085 309.896C314.21 309.771 314.28 309.601 314.28 309.424V307.216C314.28 307.039 314.21 306.87 314.085 306.745C313.96 306.62 313.79 306.549 313.613 306.549Z" fill="#E6E6E6"/>
<path d="M318.655 326.755C315.572 322.248 313.996 316.881 314.153 311.423C314.155 311.297 314.115 311.174 314.037 311.075C313.959 310.976 313.85 310.906 313.727 310.879V309.925H308.41V310.866H308.337C308.265 310.866 308.194 310.88 308.128 310.907C308.062 310.935 308.002 310.975 307.952 311.026C307.901 311.076 307.861 311.137 307.834 311.203C307.806 311.269 307.792 311.34 307.792 311.411C307.792 311.425 307.793 311.438 307.794 311.451C308.284 317.02 306.781 322.582 303.551 327.147C303.364 327.413 303.269 327.732 303.279 328.057L303.86 346.025C303.874 346.426 304.042 346.806 304.33 347.086C304.618 347.365 305.002 347.523 305.403 347.526H317.428C317.834 347.523 318.223 347.362 318.511 347.076C318.8 346.791 318.965 346.404 318.972 345.999L319.196 328.553C319.203 327.913 319.014 327.286 318.655 326.755Z" fill="#EEA202"/>
<path opacity="0.2" d="M312.564 307.269C312.564 307.65 312.412 308.016 312.142 308.286C311.872 308.556 311.506 308.707 311.124 308.707C310.742 308.707 310.376 308.556 310.106 308.286C309.836 308.016 309.684 307.65 309.684 307.269" fill="black"/>
<path d="M316.313 330.217H306.162V336.98H316.313V330.217Z" fill="white"/>
<path d="M472.909 376.744H463.486C463.155 376.744 462.837 376.876 462.603 377.11C462.368 377.344 462.237 377.662 462.237 377.993V382.125C462.237 382.457 462.368 382.774 462.603 383.008C462.837 383.242 463.155 383.374 463.486 383.374H465.048V389.566H471.347V383.374H472.909C473.24 383.374 473.558 383.242 473.792 383.008C474.026 382.774 474.158 382.457 474.158 382.125V377.993C474.158 377.662 474.026 377.344 473.792 377.11C473.558 376.876 473.24 376.744 472.909 376.744Z" fill="#E6E6E6"/>
<path d="M482.347 414.568C476.576 406.13 473.626 396.084 473.919 385.868C473.924 385.632 473.848 385.402 473.702 385.216C473.557 385.03 473.352 384.9 473.121 384.849V383.063H463.17V384.824H463.033C462.899 384.824 462.766 384.851 462.642 384.902C462.518 384.954 462.406 385.029 462.311 385.124C462.216 385.219 462.141 385.331 462.09 385.455C462.039 385.579 462.013 385.712 462.013 385.846C462.013 385.87 462.014 385.895 462.016 385.92C462.8 396.841 460.152 406.634 454.073 415.3C453.724 415.799 453.545 416.396 453.564 417.005L454.652 450.64C454.678 451.39 454.994 452.101 455.532 452.625C456.07 453.148 456.79 453.444 457.541 453.45H480.05C480.81 453.444 481.538 453.141 482.078 452.607C482.617 452.073 482.927 451.349 482.941 450.59L483.36 417.933C483.373 416.735 483.019 415.561 482.347 414.568Z" fill="#EEA202"/>
<path opacity="0.2" d="M470.944 378.091C470.944 378.805 470.66 379.49 470.155 379.995C469.65 380.5 468.964 380.784 468.249 380.784C467.534 380.784 466.849 380.5 466.343 379.995C465.838 379.49 465.554 378.805 465.554 378.091" fill="black"/>
<path d="M478.784 425.741H459.191C458.901 425.741 458.614 425.803 458.351 425.924C458.087 426.045 457.853 426.222 457.664 426.442C457.475 426.662 457.336 426.92 457.257 427.199C457.177 427.477 457.159 427.77 457.203 428.056L460.164 447.287H477.164L480.761 428.121C480.815 427.831 480.805 427.532 480.731 427.246C480.656 426.96 480.52 426.694 480.331 426.467C480.143 426.24 479.906 426.057 479.639 425.931C479.371 425.806 479.079 425.741 478.784 425.741Z" fill="white"/>
<path d="M446.024 454.393H389.855C393.782 433.178 392.879 407.559 389.855 380.008H446.024C443.081 407.559 442.202 433.178 446.024 454.393Z" fill="#EEA202"/>
<path d="M418.278 428.697C425.753 428.697 431.813 422.641 431.813 415.172C431.813 407.703 425.753 401.647 418.278 401.647C410.803 401.647 404.743 407.703 404.743 415.172C404.743 422.641 410.803 428.697 418.278 428.697Z" fill="white"/>
<path d="M216.28 220.293L228.89 219.147L236.914 199.675L222.585 191.656L216.28 220.293Z" fill="#FFB8B8"/>
<path d="M332.002 273.751C332.421 272.706 332.586 271.576 332.483 270.455C332.379 269.334 332.011 268.254 331.408 267.303C330.804 266.352 329.984 265.558 329.013 264.987C328.043 264.415 326.95 264.082 325.826 264.015L306.248 262.848L303.365 272.427L323.52 277.958C325.204 278.42 326.999 278.246 328.564 277.471C330.128 276.695 331.352 275.37 332.002 273.751Z" fill="#FFB8B8"/>
<path d="M310.98 278.119L310.764 260.145L267.277 253.211L233.775 214.817C232.032 212.819 229.624 211.521 226.996 211.161C224.368 210.802 221.699 211.407 219.483 212.864C218.142 213.746 217.01 214.912 216.169 216.278C215.328 217.645 214.797 219.18 214.615 220.775C214.433 222.369 214.603 223.984 215.115 225.505C215.626 227.026 216.465 228.417 217.573 229.578L245.211 263.566L310.98 278.119Z" fill="#575A89"/>
<path d="M206.536 480.313H218L246.433 351.857L275.888 391.539L293.083 477.449H303.973L301.681 385.239L263.279 286.73H225.451C215.113 305.424 207.004 324.695 216.28 344.576L206.536 480.313Z" fill="#2F2E41"/>
<path d="M286.056 488.115C285.929 488.52 285.89 488.948 285.942 489.369C285.994 489.791 286.134 490.196 286.355 490.559C286.576 490.922 286.871 491.234 287.222 491.474C287.573 491.713 287.97 491.876 288.389 491.95L316.439 496.924C317.548 497.127 318.692 496.917 319.656 496.335C320.621 495.753 321.339 494.838 321.675 493.763C322.002 492.736 321.956 491.627 321.546 490.63C321.136 489.634 320.387 488.813 319.432 488.314C313.264 485.149 307.956 480.538 303.962 474.875C300.879 477.743 297.434 477.473 293.775 475.359L289.894 475.844L286.056 488.115Z" fill="#2F2E41"/>
<path d="M201.229 488.115C201.102 488.52 201.063 488.948 201.115 489.369C201.166 489.791 201.307 490.196 201.528 490.559C201.749 490.922 202.044 491.234 202.395 491.474C202.746 491.713 203.143 491.876 203.562 491.95L231.612 496.924C232.721 497.127 233.865 496.917 234.829 496.335C235.794 495.753 236.512 494.838 236.848 493.763C237.175 492.736 237.129 491.627 236.719 490.63C236.309 489.634 235.56 488.813 234.605 488.314C228.437 485.149 223.129 480.538 219.135 474.875C216.052 477.743 212.607 477.473 208.947 475.359L205.066 475.844L201.229 488.115Z" fill="#2F2E41"/>
<path d="M237.2 206.834C246.064 206.834 253.249 199.654 253.249 190.797C253.249 181.941 246.064 174.761 237.2 174.761C228.337 174.761 221.152 181.941 221.152 190.797C221.152 199.654 228.337 206.834 237.2 206.834Z" fill="#FFB8B8"/>
<path d="M222.872 291.025L264.712 289.88L252.424 251.236C260.061 239.003 252.375 226.783 241.499 214.566L232.902 208.838L219.146 207.693C213.19 214.061 209.931 222.485 210.052 231.2C210.325 249.863 213.631 270.179 222.872 291.025Z" fill="#575A89"/>
<path d="M319.002 317.037C319.799 316.241 320.395 315.267 320.741 314.196C321.088 313.125 321.174 311.987 320.994 310.876C320.814 309.764 320.372 308.712 319.705 307.805C319.038 306.898 318.164 306.162 317.157 305.658L299.617 296.89L293.195 304.563L309.547 317.57C310.914 318.657 312.633 319.204 314.377 319.105C316.12 319.007 317.767 318.271 319.002 317.037Z" fill="#FFB8B8"/>
<path d="M297.955 312.789L304.833 296.18L267.582 272.71L251.896 224.242C251.08 221.721 249.377 219.58 247.103 218.217C244.828 216.854 242.136 216.361 239.525 216.829C237.945 217.112 236.446 217.739 235.134 218.665C233.823 219.591 232.731 220.794 231.936 222.188C231.141 223.582 230.661 225.134 230.532 226.733C230.403 228.333 230.627 229.941 231.189 231.445L243.219 273.557L297.955 312.789Z" fill="#575A89"/>
<path d="M210.835 184.497C210.835 190.737 214.891 200.401 220.006 204.543C223.447 207.33 227.996 207.213 229.749 203.397C231.548 199.484 237.749 190.284 248.664 184.497C263.213 176.783 243.504 163.585 229.749 165.597C219.414 167.11 210.835 174.059 210.835 184.497Z" fill="#2F2E41"/>
<path d="M220.579 175.906C226.91 175.906 232.042 170.778 232.042 164.452C232.042 158.126 226.91 152.997 220.579 152.997C214.248 152.997 209.116 158.126 209.116 164.452C209.116 170.778 214.248 175.906 220.579 175.906Z" fill="#2F2E41"/>
<path d="M233.761 160.443C233.76 157.555 232.667 154.774 230.701 152.658C228.734 150.542 226.04 149.246 223.158 149.031C223.443 149.01 223.728 148.988 224.018 148.988C227.058 148.988 229.974 150.195 232.123 152.343C234.273 154.491 235.481 157.405 235.481 160.443C235.481 163.481 234.273 166.394 232.123 168.542C229.974 170.69 227.058 171.897 224.018 171.897C223.728 171.897 223.443 171.875 223.158 171.854C226.04 171.639 228.734 170.344 230.701 168.227C232.667 166.111 233.76 163.33 233.761 160.443Z" fill="#2F2E41"/>
<path d="M237.487 196.525C238.911 196.525 240.066 194.986 240.066 193.088C240.066 191.19 238.911 189.652 237.487 189.652C236.062 189.652 234.908 191.19 234.908 193.088C234.908 194.986 236.062 196.525 237.487 196.525Z" fill="#FFB8B8"/>
<path d="M562.274 459.306H383.829L346.041 280.806H313.792V272.797H352.538L390.326 451.296H562.274V459.306Z" fill="#3F3D56"/>
<path d="M409.979 491.916C419.465 491.916 427.155 484.232 427.155 474.753C427.155 465.274 419.465 457.589 409.979 457.589C400.493 457.589 392.803 465.274 392.803 474.753C392.803 484.232 400.493 491.916 409.979 491.916Z" fill="#3F3D56"/>
<path d="M538.228 491.916C547.714 491.916 555.404 484.232 555.404 474.753C555.404 465.274 547.714 457.589 538.228 457.589C528.742 457.589 521.052 465.274 521.052 474.753C521.052 484.232 528.742 491.916 538.228 491.916Z" fill="#3F3D56"/>
<path d="M559.021 455.534H385.403L354.77 304.263H587.768C588.957 304.263 590.132 304.521 591.212 305.018C592.291 305.515 593.251 306.24 594.024 307.142C594.796 308.045 595.364 309.105 595.688 310.248C596.012 311.391 596.084 312.591 595.9 313.764L567.151 448.586C566.855 450.526 565.871 452.295 564.378 453.57C562.886 454.845 560.984 455.542 559.021 455.534ZM387.289 453.246H559.021C560.438 453.252 561.81 452.749 562.887 451.828C563.964 450.907 564.674 449.631 564.888 448.231L593.637 313.409C593.77 312.562 593.718 311.696 593.484 310.871C593.251 310.046 592.841 309.281 592.283 308.629C591.725 307.978 591.033 307.454 590.254 307.096C589.474 306.737 588.626 306.551 587.768 306.551H357.55L387.289 453.246Z" fill="#3F3D56"/>
<path d="M419.155 455.05L399.094 305.593L401.353 305.221L421.414 454.677L419.155 455.05Z" fill="#3F3D56"/>
<path d="M530.703 453.902L528.442 453.536L547.917 305.224L550.178 305.59L530.703 453.902Z" fill="#3F3D56"/>
<path d="M477.557 305.407H475.266V454.863H477.557V305.407Z" fill="#3F3D56"/>
<path d="M366.469 345.455L366.463 347.744L588.147 348.28L588.153 345.991L366.469 345.455Z" fill="#3F3D56"/>
<path d="M572.509 416.148L377.755 417.478L377.771 419.767L572.525 418.436L572.509 416.148Z" fill="#3F3D56"/>
<path d="M317.227 282.523C324.184 282.523 329.823 279.449 329.823 275.657C329.823 271.866 324.184 268.792 317.227 268.792C310.271 268.792 304.632 271.866 304.632 275.657C304.632 279.449 310.271 282.523 317.227 282.523Z" fill="#3F3D56"/>
</g>
<defs>
<clipPath id="clip0_42:217">
<rect width="596" height="497" fill="white"/>
</clipPath>
</defs>
</svg>
