<svg width="17" height="22" viewBox="0 0 17 22" fill="none" xmlns="http://www.w3.org/2000/svg">
<path d="M6.24888 0C5.79873 0 5.43381 0.36492 5.43381 0.815072V1.63014H0.815072C0.36492 1.63014 0 1.99506 0 2.44522C0 2.89537 0.36492 3.26029 0.815072 3.26029H16.0297C16.4799 3.26029 16.8448 2.89537 16.8448 2.44522C16.8448 1.99506 16.4799 1.63014 16.0297 1.63014H11.411V0.815072C11.411 0.36492 11.0461 0 10.5959 0H6.24888Z" fill="#616161"/>
<path d="M6.24888 9.1288C6.69904 9.1288 7.06396 9.49372 7.06396 9.94387L7.06396 17.5512C7.06396 18.0014 6.69904 18.3663 6.24888 18.3663C5.79873 18.3663 5.43381 18.0014 5.43381 17.5512L5.43381 9.94387C5.43381 9.49372 5.79873 9.1288 6.24888 9.1288Z" fill="#616161"/>
<path d="M11.411 9.94387C11.411 9.49372 11.0461 9.1288 10.5959 9.1288C10.1458 9.1288 9.78086 9.49372 9.78086 9.94387V17.5512C9.78086 18.0014 10.1458 18.3663 10.5959 18.3663C11.0461 18.3663 11.411 18.0014 11.411 17.5512V9.94387Z" fill="#616161"/>
<path fill-rule="evenodd" clip-rule="evenodd" d="M1.89252 6.15887C1.93838 5.74609 2.28728 5.43381 2.7026 5.43381H14.1422C14.5575 5.43381 14.9064 5.74609 14.9523 6.15887L15.1698 8.11651C15.5641 11.6651 15.5641 15.2465 15.1698 18.7952L15.1484 18.9879C14.9919 20.3965 13.9002 21.5197 12.4966 21.7162C9.79364 22.0946 7.05116 22.0946 4.34822 21.7162C2.94463 21.5197 1.85293 20.3965 1.69641 18.9879L1.675 18.7952C1.28071 15.2465 1.28071 11.6651 1.675 8.11651L1.89252 6.15887ZM3.43213 7.06395L3.29517 8.29653C2.91418 11.7255 2.91417 15.1862 3.29517 18.6151L3.31659 18.8079C3.39081 19.4759 3.90857 20.0086 4.57424 20.1018C7.12723 20.4592 9.71758 20.4592 12.2706 20.1018C12.9362 20.0086 13.454 19.4759 13.5282 18.8079L13.5496 18.6151C13.9306 15.1862 13.9306 11.7255 13.5496 8.29653L13.4127 7.06395H3.43213Z" fill="#616161"/>
</svg>
