<svg width="45" height="45" viewBox="0 0 45 45" fill="none" xmlns="http://www.w3.org/2000/svg">
<circle cx="22.5" cy="22.5" r="22.5" fill="#EEA202"/>
<path fill-rule="evenodd" clip-rule="evenodd" d="M18.2812 23.625C18.2812 21.295 20.17 19.4062 22.5 19.4062C24.8299 19.4062 26.7187 21.295 26.7187 23.625C26.7187 25.955 24.8299 27.8438 22.5 27.8438C20.17 27.8438 18.2812 25.955 18.2812 23.625ZM22.5 21.0938C21.102 21.0938 19.9687 22.227 19.9687 23.625C19.9687 25.023 21.102 26.1562 22.5 26.1562C23.8979 26.1562 25.0312 25.023 25.0312 23.625C25.0312 22.227 23.8979 21.0938 22.5 21.0938Z" fill="white"/>
<path fill-rule="evenodd" clip-rule="evenodd" d="M20.9431 15.4688C19.7673 15.4688 18.8141 16.4219 18.8141 17.5978C18.8141 18.347 18.239 18.9707 17.4922 19.0313L14.9839 19.235C14.4915 19.275 14.0864 19.6392 13.9945 20.1247C13.4897 22.791 13.452 25.5247 13.8833 28.2038L13.9927 28.8835C14.096 29.5255 14.6243 30.0139 15.2724 30.0665L17.4575 30.244C20.8136 30.5165 24.1863 30.5165 27.5425 30.244L29.7276 30.0665C30.3756 30.0139 30.904 29.5255 31.0073 28.8835L31.1167 28.2038C31.5479 25.5247 31.5103 22.791 31.0055 20.1247C30.9135 19.6392 30.5085 19.275 30.016 19.235L27.5077 19.0313C26.761 18.9707 26.1858 18.347 26.1858 17.5978C26.1858 16.4219 25.2326 15.4688 24.0568 15.4688H20.9431ZM17.1335 17.3674C17.2525 15.3669 18.9127 13.7812 20.9431 13.7812H24.0568C26.0873 13.7812 27.7474 15.3669 27.8665 17.3674L30.1526 17.5531C31.4024 17.6546 32.4302 18.5788 32.6635 19.8108C33.2047 22.6691 33.2451 25.5998 32.7828 28.472L32.6734 29.1517C32.4465 30.5608 31.2868 31.6329 29.8642 31.7485L27.679 31.9259C24.232 32.2059 20.7679 32.2059 17.3209 31.9259L15.1358 31.7485C13.7132 31.6329 12.5534 30.5609 12.3266 29.1517L12.2172 28.472C11.7549 25.5998 11.7953 22.6691 12.3365 19.8108C12.5697 18.5788 13.5976 17.6546 14.8474 17.5531L17.1335 17.3674Z" fill="white"/>
</svg>
