<svg width="24" height="26" viewBox="0 0 24 26" fill="none" xmlns="http://www.w3.org/2000/svg">
<path d="M14.4494 5.55055C14.9376 6.0387 15.7291 6.0387 16.2172 5.55055L17.4167 4.3511L17.4167 21.3333C17.4167 22.0237 17.9763 22.5833 18.6667 22.5833C19.357 22.5833 19.9167 22.0237 19.9167 21.3333L19.9167 4.3511L21.1161 5.55055C21.6043 6.0387 22.3957 6.0387 22.8839 5.55055C23.372 5.06239 23.372 4.27093 22.8839 3.78278L19.5505 0.449445C19.0624 -0.0387106 18.2709 -0.0387106 17.7828 0.449445L14.4494 3.78278C13.9613 4.27093 13.9613 5.06239 14.4494 5.55055Z" fill="#EEA202"/>
<path d="M6.58333 21.6489L7.78278 20.4494C8.27094 19.9613 9.0624 19.9613 9.55055 20.4494C10.0387 20.9376 10.0387 21.7291 9.55055 22.2172L6.21722 25.5505C5.72906 26.0387 4.9376 26.0387 4.44945 25.5505L1.11612 22.2172C0.627961 21.7291 0.627961 20.9376 1.11612 20.4494C1.60427 19.9613 2.39573 19.9613 2.88388 20.4494L4.08333 21.6489L4.08333 4.66666C4.08333 3.97631 4.64298 3.41666 5.33333 3.41666C6.02369 3.41666 6.58333 3.97631 6.58333 4.66666L6.58333 21.6489Z" fill="#EEA202"/>
</svg>
